<svg xmlns="http://www.w3.org/2000/svg" width="1200" height="168" viewBox="0 0 1200 168">
  <defs>
    <linearGradient id="depth" x1="0" y1="0" x2="1" y2="1">
      <stop offset="0" stop-color="#045F37"/>
      <stop offset="0.55" stop-color="#023E25"/>
      <stop offset="1" stop-color="#012C1A"/>
    </linearGradient>
    <radialGradient id="glowA" cx="0.12" cy="-0.15" r="0.75">
      <stop offset="0" stop-color="#037A47" stop-opacity="0.85"/>
      <stop offset="1" stop-color="#037A47" stop-opacity="0"/>
    </radialGradient>
    <radialGradient id="glowB" cx="0.84" cy="0.5" r="0.4">
      <stop offset="0" stop-color="#00C26D" stop-opacity="0.22"/>
      <stop offset="1" stop-color="#00C26D" stop-opacity="0"/>
    </radialGradient>
  </defs>
  <rect width="1200" height="168" fill="url(#depth)"/>
  <rect width="1200" height="168" fill="url(#glowA)"/>
  <rect width="1200" height="168" fill="url(#glowB)"/>
  
  <g><line x1="888.6" y1="4.4" x2="827.7" y2="17.7" stroke="#6FE7B0" stroke-width="1.00" stroke-opacity="0.112"/><line x1="888.6" y1="4.4" x2="815.8" y2="34.5" stroke="#6FE7B0" stroke-width="1.00" stroke-opacity="0.086"/><line x1="769.6" y1="45.4" x2="767.2" y2="50.3" stroke="#6FE7B0" stroke-width="1.00" stroke-opacity="0.202"/><line x1="769.6" y1="45.4" x2="827.7" y2="17.7" stroke="#6FE7B0" stroke-width="1.00" stroke-opacity="0.109"/><line x1="769.6" y1="45.4" x2="762.2" y2="104.4" stroke="#6FE7B0" stroke-width="1.00" stroke-opacity="0.117"/><line x1="769.6" y1="45.4" x2="815.8" y2="34.5" stroke="#6FE7B0" stroke-width="1.00" stroke-opacity="0.136"/><line x1="769.6" y1="45.4" x2="699.2" y2="86.4" stroke="#6FE7B0" stroke-width="1.00" stroke-opacity="0.082"/><line x1="957.8" y1="77.0" x2="1046.2" y2="36.3" stroke="#6FE7B0" stroke-width="1.00" stroke-opacity="0.057"/><line x1="957.8" y1="77.0" x2="1009.7" y2="43.7" stroke="#6FE7B0" stroke-width="1.00" stroke-opacity="0.113"/><line x1="957.8" y1="77.0" x2="1045.4" y2="70.1" stroke="#6FE7B0" stroke-width="1.00" stroke-opacity="0.072"/><line x1="957.8" y1="77.0" x2="986.4" y2="122.0" stroke="#6FE7B0" stroke-width="1.00" stroke-opacity="0.126"/><line x1="957.8" y1="77.0" x2="1010.6" y2="115.9" stroke="#6FE7B0" stroke-width="1.00" stroke-opacity="0.107"/><line x1="852.0" y1="122.2" x2="780.8" y2="143.6" stroke="#6FE7B0" stroke-width="1.00" stroke-opacity="0.093"/><line x1="852.0" y1="122.2" x2="822.0" y2="162.6" stroke="#6FE7B0" stroke-width="1.00" stroke-opacity="0.131"/><line x1="852.0" y1="122.2" x2="762.2" y2="104.4" stroke="#6FE7B0" stroke-width="1.00" stroke-opacity="0.066"/><line x1="852.0" y1="122.2" x2="815.8" y2="34.5" stroke="#6FE7B0" stroke-width="1.00" stroke-opacity="0.061"/><line x1="780.8" y1="143.6" x2="767.2" y2="50.3" stroke="#6FE7B0" stroke-width="1.00" stroke-opacity="0.062"/><line x1="780.8" y1="143.6" x2="698.8" y2="152.3" stroke="#6FE7B0" stroke-width="1.00" stroke-opacity="0.081"/><line x1="780.8" y1="143.6" x2="784.1" y2="45.4" stroke="#6FE7B0" stroke-width="1.00" stroke-opacity="0.056"/><line x1="780.8" y1="143.6" x2="851.4" y2="152.9" stroke="#6FE7B0" stroke-width="1.00" stroke-opacity="0.098"/><line x1="780.8" y1="143.6" x2="762.2" y2="104.4" stroke="#6FE7B0" stroke-width="1.00" stroke-opacity="0.142"/><line x1="674.5" y1="105.0" x2="735.9" y2="24.5" stroke="#6FE7B0" stroke-width="1.00" stroke-opacity="0.051"/><line x1="674.5" y1="105.0" x2="675.5" y2="23.9" stroke="#6FE7B0" stroke-width="1.00" stroke-opacity="0.083"/><line x1="674.5" y1="105.0" x2="699.2" y2="86.4" stroke="#6FE7B0" stroke-width="1.00" stroke-opacity="0.161"/><line x1="674.5" y1="105.0" x2="689.8" y2="137.2" stroke="#6FE7B0" stroke-width="1.00" stroke-opacity="0.154"/><line x1="1124.7" y1="110.6" x2="1113.0" y2="12.0" stroke="#6FE7B0" stroke-width="1.00" stroke-opacity="0.054"/><line x1="1124.7" y1="110.6" x2="1176.8" y2="125.2" stroke="#6FE7B0" stroke-width="1.00" stroke-opacity="0.125"/><line x1="1124.7" y1="110.6" x2="1181.5" y2="30.8" stroke="#6FE7B0" stroke-width="1.00" stroke-opacity="0.056"/><line x1="1124.7" y1="110.6" x2="1092.6" y2="107.1" stroke="#6FE7B0" stroke-width="1.00" stroke-opacity="0.159"/><line x1="1124.7" y1="110.6" x2="1151.2" y2="149.0" stroke="#6FE7B0" stroke-width="1.00" stroke-opacity="0.137"/><line x1="748.6" y1="14.8" x2="735.9" y2="24.5" stroke="#6FE7B0" stroke-width="1.00" stroke-opacity="0.185"/><line x1="748.6" y1="14.8" x2="767.2" y2="50.3" stroke="#6FE7B0" stroke-width="1.00" stroke-opacity="0.147"/><line x1="748.6" y1="14.8" x2="784.1" y2="45.4" stroke="#6FE7B0" stroke-width="1.00" stroke-opacity="0.137"/><line x1="748.6" y1="14.8" x2="815.8" y2="34.5" stroke="#6FE7B0" stroke-width="1.00" stroke-opacity="0.100"/><line x1="748.6" y1="14.8" x2="699.2" y2="86.4" stroke="#6FE7B0" stroke-width="1.00" stroke-opacity="0.074"/><line x1="1046.2" y1="36.3" x2="1059.4" y2="4.0" stroke="#6FE7B0" stroke-width="1.00" stroke-opacity="0.155"/><line x1="1046.2" y1="36.3" x2="1009.7" y2="43.7" stroke="#6FE7B0" stroke-width="1.00" stroke-opacity="0.152"/><line x1="1046.2" y1="36.3" x2="1089.2" y2="42.7" stroke="#6FE7B0" stroke-width="1.00" stroke-opacity="0.142"/><line x1="1046.2" y1="36.3" x2="1070.2" y2="29.0" stroke="#6FE7B0" stroke-width="1.00" stroke-opacity="0.171"/><line x1="1046.2" y1="36.3" x2="1001.4" y2="79.4" stroke="#6FE7B0" stroke-width="1.00" stroke-opacity="0.112"/><line x1="1046.2" y1="36.3" x2="1092.6" y2="107.1" stroke="#6FE7B0" stroke-width="1.00" stroke-opacity="0.077"/><line x1="1059.4" y1="4.0" x2="1121.8" y2="59.5" stroke="#6FE7B0" stroke-width="1.00" stroke-opacity="0.079"/><line x1="1059.4" y1="4.0" x2="1009.7" y2="43.7" stroke="#6FE7B0" stroke-width="1.00" stroke-opacity="0.110"/><line x1="1059.4" y1="4.0" x2="1113.0" y2="12.0" stroke="#6FE7B0" stroke-width="1.00" stroke-opacity="0.125"/><line x1="1059.4" y1="4.0" x2="1045.4" y2="70.1" stroke="#6FE7B0" stroke-width="1.00" stroke-opacity="0.104"/><line x1="1059.4" y1="4.0" x2="1089.2" y2="42.7" stroke="#6FE7B0" stroke-width="1.00" stroke-opacity="0.133"/><line x1="1059.4" y1="4.0" x2="1034.8" y2="57.1" stroke="#6FE7B0" stroke-width="1.00" stroke-opacity="0.118"/><line x1="1059.4" y1="4.0" x2="1064.0" y2="54.6" stroke="#6FE7B0" stroke-width="1.00" stroke-opacity="0.130"/><line x1="735.9" y1="24.5" x2="767.2" y2="50.3" stroke="#6FE7B0" stroke-width="1.00" stroke-opacity="0.146"/><line x1="735.9" y1="24.5" x2="675.5" y2="23.9" stroke="#6FE7B0" stroke-width="1.00" stroke-opacity="0.115"/><line x1="735.9" y1="24.5" x2="762.2" y2="104.4" stroke="#6FE7B0" stroke-width="1.00" stroke-opacity="0.078"/><line x1="735.9" y1="24.5" x2="699.2" y2="86.4" stroke="#6FE7B0" stroke-width="1.00" stroke-opacity="0.097"/><line x1="1121.8" y1="59.5" x2="1045.4" y2="70.1" stroke="#6FE7B0" stroke-width="1.00" stroke-opacity="0.089"/><line x1="1121.8" y1="59.5" x2="1089.2" y2="42.7" stroke="#6FE7B0" stroke-width="1.00" stroke-opacity="0.152"/><line x1="1121.8" y1="59.5" x2="1070.2" y2="29.0" stroke="#6FE7B0" stroke-width="1.00" stroke-opacity="0.116"/><line x1="1121.8" y1="59.5" x2="1176.8" y2="125.2" stroke="#6FE7B0" stroke-width="1.00" stroke-opacity="0.076"/><line x1="1121.8" y1="59.5" x2="1092.4" y2="144.1" stroke="#6FE7B0" stroke-width="1.00" stroke-opacity="0.069"/><line x1="780.9" y1="13.2" x2="767.2" y2="50.3" stroke="#6FE7B0" stroke-width="1.00" stroke-opacity="0.148"/><line x1="780.9" y1="13.2" x2="827.7" y2="17.7" stroke="#6FE7B0" stroke-width="1.00" stroke-opacity="0.136"/><line x1="780.9" y1="13.2" x2="814.5" y2="92.9" stroke="#6FE7B0" stroke-width="1.00" stroke-opacity="0.074"/><line x1="780.9" y1="13.2" x2="815.8" y2="34.5" stroke="#6FE7B0" stroke-width="1.00" stroke-opacity="0.146"/><line x1="1009.7" y1="43.7" x2="1089.2" y2="42.7" stroke="#6FE7B0" stroke-width="1.00" stroke-opacity="0.085"/><line x1="1009.7" y1="43.7" x2="1070.2" y2="29.0" stroke="#6FE7B0" stroke-width="1.00" stroke-opacity="0.112"/><line x1="1009.7" y1="43.7" x2="1001.4" y2="79.4" stroke="#6FE7B0" stroke-width="1.00" stroke-opacity="0.152"/><line x1="1009.7" y1="43.7" x2="1034.8" y2="57.1" stroke="#6FE7B0" stroke-width="1.00" stroke-opacity="0.165"/><line x1="1009.7" y1="43.7" x2="1010.6" y2="115.9" stroke="#6FE7B0" stroke-width="1.00" stroke-opacity="0.097"/><line x1="1113.0" y1="12.0" x2="1045.4" y2="70.1" stroke="#6FE7B0" stroke-width="1.00" stroke-opacity="0.070"/><line x1="1113.0" y1="12.0" x2="1089.2" y2="42.7" stroke="#6FE7B0" stroke-width="1.00" stroke-opacity="0.149"/><line x1="1113.0" y1="12.0" x2="1180.8" y2="26.8" stroke="#6FE7B0" stroke-width="1.00" stroke-opacity="0.101"/><line x1="1113.0" y1="12.0" x2="1034.8" y2="57.1" stroke="#6FE7B0" stroke-width="1.00" stroke-opacity="0.068"/><line x1="1113.0" y1="12.0" x2="1064.0" y2="54.6" stroke="#6FE7B0" stroke-width="1.00" stroke-opacity="0.108"/><line x1="1113.0" y1="12.0" x2="1092.6" y2="107.1" stroke="#6FE7B0" stroke-width="1.00" stroke-opacity="0.057"/><line x1="767.2" y1="50.3" x2="827.7" y2="17.7" stroke="#6FE7B0" stroke-width="1.00" stroke-opacity="0.102"/><line x1="767.2" y1="50.3" x2="784.1" y2="45.4" stroke="#6FE7B0" stroke-width="1.00" stroke-opacity="0.183"/><line x1="767.2" y1="50.3" x2="814.5" y2="92.9" stroke="#6FE7B0" stroke-width="1.00" stroke-opacity="0.110"/><line x1="767.2" y1="50.3" x2="762.2" y2="104.4" stroke="#6FE7B0" stroke-width="1.00" stroke-opacity="0.125"/><line x1="767.2" y1="50.3" x2="815.8" y2="34.5" stroke="#6FE7B0" stroke-width="1.00" stroke-opacity="0.130"/><line x1="767.2" y1="50.3" x2="699.2" y2="86.4" stroke="#6FE7B0" stroke-width="1.00" stroke-opacity="0.089"/><line x1="1045.4" y1="70.1" x2="1070.2" y2="29.0" stroke="#6FE7B0" stroke-width="1.00" stroke-opacity="0.135"/><line x1="1045.4" y1="70.1" x2="1001.4" y2="79.4" stroke="#6FE7B0" stroke-width="1.00" stroke-opacity="0.140"/><line x1="1045.4" y1="70.1" x2="1034.8" y2="57.1" stroke="#6FE7B0" stroke-width="1.00" stroke-opacity="0.184"/><line x1="1045.4" y1="70.1" x2="1064.0" y2="54.6" stroke="#6FE7B0" stroke-width="1.00" stroke-opacity="0.172"/><line x1="1089.2" y1="42.7" x2="1001.4" y2="79.4" stroke="#6FE7B0" stroke-width="1.00" stroke-opacity="0.061"/><line x1="1089.2" y1="42.7" x2="1180.8" y2="26.8" stroke="#6FE7B0" stroke-width="1.00" stroke-opacity="0.064"/><line x1="1089.2" y1="42.7" x2="1064.0" y2="54.6" stroke="#6FE7B0" stroke-width="1.00" stroke-opacity="0.166"/><line x1="1089.2" y1="42.7" x2="1181.5" y2="30.8" stroke="#6FE7B0" stroke-width="1.00" stroke-opacity="0.064"/><line x1="1089.2" y1="42.7" x2="1092.4" y2="144.1" stroke="#6FE7B0" stroke-width="1.00" stroke-opacity="0.051"/><line x1="1070.2" y1="29.0" x2="1001.4" y2="79.4" stroke="#6FE7B0" stroke-width="1.00" stroke-opacity="0.076"/><line x1="1070.2" y1="29.0" x2="1034.8" y2="57.1" stroke="#6FE7B0" stroke-width="1.00" stroke-opacity="0.139"/><line x1="698.8" y1="152.3" x2="797.7" y2="148.5" stroke="#6FE7B0" stroke-width="1.00" stroke-opacity="0.055"/><line x1="698.8" y1="152.3" x2="762.2" y2="104.4" stroke="#6FE7B0" stroke-width="1.00" stroke-opacity="0.085"/><line x1="698.8" y1="152.3" x2="689.8" y2="137.2" stroke="#6FE7B0" stroke-width="1.00" stroke-opacity="0.182"/><line x1="1001.4" y1="79.4" x2="1064.0" y2="54.6" stroke="#6FE7B0" stroke-width="1.00" stroke-opacity="0.104"/><line x1="1001.4" y1="79.4" x2="1010.6" y2="115.9" stroke="#6FE7B0" stroke-width="1.00" stroke-opacity="0.151"/><line x1="675.5" y1="23.9" x2="699.2" y2="86.4" stroke="#6FE7B0" stroke-width="1.00" stroke-opacity="0.105"/><line x1="797.7" y1="148.5" x2="822.0" y2="162.6" stroke="#6FE7B0" stroke-width="1.00" stroke-opacity="0.166"/><line x1="797.7" y1="148.5" x2="762.2" y2="104.4" stroke="#6FE7B0" stroke-width="1.00" stroke-opacity="0.121"/><line x1="923.5" y1="92.1" x2="986.4" y2="122.0" stroke="#6FE7B0" stroke-width="1.00" stroke-opacity="0.101"/><line x1="923.5" y1="92.1" x2="851.4" y2="152.9" stroke="#6FE7B0" stroke-width="1.00" stroke-opacity="0.062"/><line x1="923.5" y1="92.1" x2="1010.6" y2="115.9" stroke="#6FE7B0" stroke-width="1.00" stroke-opacity="0.068"/><line x1="827.7" y1="17.7" x2="784.1" y2="45.4" stroke="#6FE7B0" stroke-width="1.00" stroke-opacity="0.129"/><line x1="827.7" y1="17.7" x2="815.8" y2="34.5" stroke="#6FE7B0" stroke-width="1.00" stroke-opacity="0.178"/><line x1="784.1" y1="45.4" x2="762.2" y2="104.4" stroke="#6FE7B0" stroke-width="1.00" stroke-opacity="0.111"/><line x1="784.1" y1="45.4" x2="699.2" y2="86.4" stroke="#6FE7B0" stroke-width="1.00" stroke-opacity="0.062"/><line x1="661.0" y1="123.8" x2="689.8" y2="137.2" stroke="#6FE7B0" stroke-width="1.00" stroke-opacity="0.160"/><line x1="986.4" y1="122.0" x2="1034.8" y2="57.1" stroke="#6FE7B0" stroke-width="1.00" stroke-opacity="0.083"/><line x1="851.4" y1="152.9" x2="814.5" y2="92.9" stroke="#6FE7B0" stroke-width="1.00" stroke-opacity="0.100"/><line x1="851.4" y1="152.9" x2="822.0" y2="162.6" stroke="#6FE7B0" stroke-width="1.00" stroke-opacity="0.161"/><line x1="1176.8" y1="125.2" x2="1181.5" y2="30.8" stroke="#6FE7B0" stroke-width="1.00" stroke-opacity="0.062"/><line x1="1176.8" y1="125.2" x2="1092.4" y2="144.1" stroke="#6FE7B0" stroke-width="1.00" stroke-opacity="0.074"/><line x1="814.5" y1="92.9" x2="822.0" y2="162.6" stroke="#6FE7B0" stroke-width="1.00" stroke-opacity="0.100"/><line x1="814.5" y1="92.9" x2="762.2" y2="104.4" stroke="#6FE7B0" stroke-width="1.00" stroke-opacity="0.126"/><line x1="822.0" y1="162.6" x2="762.2" y2="104.4" stroke="#6FE7B0" stroke-width="1.00" stroke-opacity="0.079"/><line x1="762.2" y1="104.4" x2="699.2" y2="86.4" stroke="#6FE7B0" stroke-width="1.00" stroke-opacity="0.107"/><line x1="762.2" y1="104.4" x2="689.8" y2="137.2" stroke="#6FE7B0" stroke-width="1.00" stroke-opacity="0.085"/><line x1="1064.0" y1="54.6" x2="1092.6" y2="107.1" stroke="#6FE7B0" stroke-width="1.00" stroke-opacity="0.116"/><line x1="1092.6" y1="107.1" x2="1010.6" y2="115.9" stroke="#6FE7B0" stroke-width="1.00" stroke-opacity="0.081"/><line x1="1010.6" y1="115.9" x2="1092.4" y2="144.1" stroke="#6FE7B0" stroke-width="1.00" stroke-opacity="0.074"/></g>
  <g><circle cx="888.6" cy="4.4" r="1.26" fill="#FFFFFF" fill-opacity="0.445"/><circle cx="769.6" cy="45.4" r="1.44" fill="#6FE7B0" fill-opacity="0.230"/><circle cx="957.8" cy="77.0" r="2.10" fill="#6FE7B0" fill-opacity="0.374"/><circle cx="852.0" cy="122.2" r="3.50" fill="#6FE7B0" fill-opacity="0.415"/><circle cx="780.8" cy="143.6" r="1.67" fill="#6FE7B0" fill-opacity="0.161"/><circle cx="674.5" cy="105.0" r="2.91" fill="#36D993" fill-opacity="0.128"/><circle cx="1124.7" cy="110.6" r="2.03" fill="#36D993" fill-opacity="0.326"/><circle cx="748.6" cy="14.8" r="3.06" fill="#6FE7B0" fill-opacity="0.255"/><circle cx="1046.2" cy="36.3" r="2.64" fill="#FFFFFF" fill-opacity="0.239"/><circle cx="1059.4" cy="4.0" r="3.44" fill="#6FE7B0" fill-opacity="0.434"/><circle cx="735.9" cy="24.5" r="1.90" fill="#FFFFFF" fill-opacity="0.357"/><circle cx="1121.8" cy="59.5" r="2.23" fill="#FFFFFF" fill-opacity="0.224"/><circle cx="780.9" cy="13.2" r="3.08" fill="#6FE7B0" fill-opacity="0.228"/><circle cx="1009.7" cy="43.7" r="2.07" fill="#6FE7B0" fill-opacity="0.375"/><circle cx="1113.0" cy="12.0" r="2.54" fill="#FFFFFF" fill-opacity="0.356"/><circle cx="767.2" cy="50.3" r="1.66" fill="#36D993" fill-opacity="0.417"/><circle cx="1045.4" cy="70.1" r="1.24" fill="#36D993" fill-opacity="0.215"/><circle cx="1089.2" cy="42.7" r="2.25" fill="#36D993" fill-opacity="0.147"/><circle cx="1070.2" cy="29.0" r="1.99" fill="#36D993" fill-opacity="0.480"/><circle cx="698.8" cy="152.3" r="3.69" fill="#36D993" fill-opacity="0.084"/><circle cx="1001.4" cy="79.4" r="1.45" fill="#6FE7B0" fill-opacity="0.272"/><circle cx="675.5" cy="23.9" r="1.58" fill="#6FE7B0" fill-opacity="0.342"/><circle cx="797.7" cy="148.5" r="1.87" fill="#6FE7B0" fill-opacity="0.223"/><circle cx="923.5" cy="92.1" r="1.36" fill="#6FE7B0" fill-opacity="0.179"/><circle cx="514.3" cy="22.4" r="3.08" fill="#36D993" fill-opacity="0.294"/><circle cx="827.7" cy="17.7" r="3.61" fill="#36D993" fill-opacity="0.169"/><circle cx="784.1" cy="45.4" r="2.59" fill="#FFFFFF" fill-opacity="0.238"/><circle cx="1180.8" cy="26.8" r="1.48" fill="#6FE7B0" fill-opacity="0.538"/><circle cx="661.0" cy="123.8" r="3.31" fill="#6FE7B0" fill-opacity="0.237"/><circle cx="986.4" cy="122.0" r="1.88" fill="#6FE7B0" fill-opacity="0.196"/><circle cx="851.4" cy="152.9" r="2.44" fill="#36D993" fill-opacity="0.354"/><circle cx="1176.8" cy="125.2" r="1.54" fill="#6FE7B0" fill-opacity="0.442"/><circle cx="1034.8" cy="57.1" r="1.56" fill="#6FE7B0" fill-opacity="0.555"/><circle cx="814.5" cy="92.9" r="3.39" fill="#36D993" fill-opacity="0.459"/><circle cx="822.0" cy="162.6" r="1.23" fill="#6FE7B0" fill-opacity="0.285"/><circle cx="762.2" cy="104.4" r="1.79" fill="#36D993" fill-opacity="0.091"/><circle cx="815.8" cy="34.5" r="2.64" fill="#6FE7B0" fill-opacity="0.257"/><circle cx="1064.0" cy="54.6" r="1.41" fill="#6FE7B0" fill-opacity="0.463"/><circle cx="481.2" cy="20.0" r="1.28" fill="#6FE7B0" fill-opacity="0.222"/><circle cx="1181.5" cy="30.8" r="2.21" fill="#36D993" fill-opacity="0.443"/><circle cx="1092.6" cy="107.1" r="2.11" fill="#6FE7B0" fill-opacity="0.282"/><circle cx="1010.6" cy="115.9" r="3.40" fill="#6FE7B0" fill-opacity="0.523"/><circle cx="1092.4" cy="144.1" r="1.49" fill="#FFFFFF" fill-opacity="0.447"/><circle cx="1151.2" cy="149.0" r="1.27" fill="#36D993" fill-opacity="0.587"/><circle cx="699.2" cy="86.4" r="1.76" fill="#6FE7B0" fill-opacity="0.104"/><circle cx="689.8" cy="137.2" r="2.19" fill="#36D993" fill-opacity="0.185"/></g>
</svg>